<mxfile host="Electron" agent="Mozilla/5.0 (Windows NT 10.0; Win64; x64) AppleWebKit/537.36 (KHTML, like Gecko) draw.io/28.1.2 Chrome/138.0.7204.243 Electron/37.4.0 Safari/537.36" version="28.1.2">
  <diagram name="Page-1" id="eWCgjDaAmE16t51bM2Bh">
    <mxGraphModel dx="2070" dy="642" grid="1" gridSize="10" guides="1" tooltips="1" connect="1" arrows="1" fold="1" page="1" pageScale="1" pageWidth="850" pageHeight="1100" math="0" shadow="0">
      <root>
        <mxCell id="0" />
        <mxCell id="1" parent="0" />
        <mxCell id="5e5WTFrlp_W5CzMCf6vT-152" value="" style="rounded=0;whiteSpace=wrap;html=1;" vertex="1" parent="1">
          <mxGeometry x="80" y="130" width="180" height="220" as="geometry" />
        </mxCell>
        <mxCell id="5e5WTFrlp_W5CzMCf6vT-153" value="Email" style="rounded=0;whiteSpace=wrap;html=1;" vertex="1" parent="1">
          <mxGeometry x="105" y="140" width="130" height="20" as="geometry" />
        </mxCell>
        <mxCell id="5e5WTFrlp_W5CzMCf6vT-154" value="Password" style="rounded=0;whiteSpace=wrap;html=1;" vertex="1" parent="1">
          <mxGeometry x="105" y="170" width="130" height="20" as="geometry" />
        </mxCell>
        <mxCell id="5e5WTFrlp_W5CzMCf6vT-155" value="Login" style="rounded=0;whiteSpace=wrap;html=1;fontSize=10;" vertex="1" parent="1">
          <mxGeometry x="105" y="230" width="45" height="20" as="geometry" />
        </mxCell>
        <mxCell id="5e5WTFrlp_W5CzMCf6vT-156" value="Register" style="rounded=0;whiteSpace=wrap;html=1;fontSize=9;" vertex="1" parent="1">
          <mxGeometry x="190" y="230" width="45" height="20" as="geometry" />
        </mxCell>
        <mxCell id="5e5WTFrlp_W5CzMCf6vT-157" value="" style="rounded=0;whiteSpace=wrap;html=1;" vertex="1" parent="1">
          <mxGeometry x="290" y="130" width="180" height="220" as="geometry" />
        </mxCell>
        <mxCell id="5e5WTFrlp_W5CzMCf6vT-158" value="" style="rounded=0;whiteSpace=wrap;html=1;" vertex="1" parent="1">
          <mxGeometry x="315" y="150" width="130" height="20" as="geometry" />
        </mxCell>
        <mxCell id="5e5WTFrlp_W5CzMCf6vT-159" value="" style="rounded=0;whiteSpace=wrap;html=1;" vertex="1" parent="1">
          <mxGeometry x="315" y="180" width="130" height="20" as="geometry" />
        </mxCell>
        <mxCell id="5e5WTFrlp_W5CzMCf6vT-160" value="Register" style="rounded=0;whiteSpace=wrap;html=1;fontSize=10;" vertex="1" parent="1">
          <mxGeometry x="315" y="270" width="45" height="20" as="geometry" />
        </mxCell>
        <mxCell id="5e5WTFrlp_W5CzMCf6vT-161" style="edgeStyle=orthogonalEdgeStyle;rounded=0;orthogonalLoop=1;jettySize=auto;html=1;entryX=0.5;entryY=0;entryDx=0;entryDy=0;" edge="1" parent="1" source="5e5WTFrlp_W5CzMCf6vT-162" target="5e5WTFrlp_W5CzMCf6vT-152">
          <mxGeometry relative="1" as="geometry">
            <Array as="points">
              <mxPoint x="500" y="280" />
              <mxPoint x="500" y="110" />
              <mxPoint x="170" y="110" />
            </Array>
          </mxGeometry>
        </mxCell>
        <mxCell id="5e5WTFrlp_W5CzMCf6vT-162" value="Login" style="rounded=0;whiteSpace=wrap;html=1;fontSize=9;" vertex="1" parent="1">
          <mxGeometry x="400" y="270" width="45" height="20" as="geometry" />
        </mxCell>
        <mxCell id="5e5WTFrlp_W5CzMCf6vT-163" value="" style="rounded=0;whiteSpace=wrap;html=1;" vertex="1" parent="1">
          <mxGeometry x="315" y="210" width="130" height="20" as="geometry" />
        </mxCell>
        <mxCell id="5e5WTFrlp_W5CzMCf6vT-164" value="" style="rounded=0;whiteSpace=wrap;html=1;" vertex="1" parent="1">
          <mxGeometry x="315" y="240" width="130" height="20" as="geometry" />
        </mxCell>
        <mxCell id="5e5WTFrlp_W5CzMCf6vT-165" style="edgeStyle=orthogonalEdgeStyle;rounded=0;orthogonalLoop=1;jettySize=auto;html=1;entryX=0.009;entryY=0.412;entryDx=0;entryDy=0;entryPerimeter=0;" edge="1" parent="1" source="5e5WTFrlp_W5CzMCf6vT-156" target="5e5WTFrlp_W5CzMCf6vT-157">
          <mxGeometry relative="1" as="geometry" />
        </mxCell>
        <mxCell id="5e5WTFrlp_W5CzMCf6vT-166" style="edgeStyle=orthogonalEdgeStyle;rounded=0;orthogonalLoop=1;jettySize=auto;html=1;entryX=0.99;entryY=0.68;entryDx=0;entryDy=0;entryPerimeter=0;" edge="1" parent="1" source="5e5WTFrlp_W5CzMCf6vT-160" target="5e5WTFrlp_W5CzMCf6vT-152">
          <mxGeometry relative="1" as="geometry" />
        </mxCell>
        <mxCell id="5e5WTFrlp_W5CzMCf6vT-167" value="Login" style="text;html=1;align=center;verticalAlign=middle;whiteSpace=wrap;rounded=0;fontStyle=1;fontSize=15;" vertex="1" parent="1">
          <mxGeometry x="80" y="350" width="180" height="30" as="geometry" />
        </mxCell>
        <mxCell id="5e5WTFrlp_W5CzMCf6vT-168" value="Register" style="text;html=1;align=center;verticalAlign=middle;whiteSpace=wrap;rounded=0;fontStyle=1;fontSize=15;" vertex="1" parent="1">
          <mxGeometry x="290" y="350" width="180" height="30" as="geometry" />
        </mxCell>
        <mxCell id="5e5WTFrlp_W5CzMCf6vT-215" style="edgeStyle=orthogonalEdgeStyle;rounded=0;orthogonalLoop=1;jettySize=auto;html=1;entryX=0;entryY=0.75;entryDx=0;entryDy=0;" edge="1" parent="1" target="5e5WTFrlp_W5CzMCf6vT-201">
          <mxGeometry relative="1" as="geometry">
            <Array as="points">
              <mxPoint x="10" y="540" />
              <mxPoint x="10" y="915" />
            </Array>
            <mxPoint x="99.5" y="539.9999999999998" as="sourcePoint" />
          </mxGeometry>
        </mxCell>
        <mxCell id="5e5WTFrlp_W5CzMCf6vT-281" value="" style="rounded=0;whiteSpace=wrap;html=1;" vertex="1" parent="1">
          <mxGeometry x="-675" y="150" width="250" height="220" as="geometry" />
        </mxCell>
        <mxCell id="5e5WTFrlp_W5CzMCf6vT-282" value="ContactUs" style="text;html=1;align=center;verticalAlign=middle;whiteSpace=wrap;rounded=0;fontStyle=1;fontSize=15;" vertex="1" parent="1">
          <mxGeometry x="-675" y="370" width="250" height="30" as="geometry" />
        </mxCell>
        <mxCell id="5e5WTFrlp_W5CzMCf6vT-283" value="" style="rounded=0;whiteSpace=wrap;html=1;" vertex="1" parent="1">
          <mxGeometry x="-675" y="150" width="250" height="20" as="geometry" />
        </mxCell>
        <mxCell id="5e5WTFrlp_W5CzMCf6vT-289" value="ContactUs" style="text;html=1;align=center;verticalAlign=middle;whiteSpace=wrap;rounded=0;fontSize=9;fontStyle=1" vertex="1" parent="1">
          <mxGeometry x="-475" y="150" width="45" height="20" as="geometry" />
        </mxCell>
        <mxCell id="5e5WTFrlp_W5CzMCf6vT-290" value="" style="rounded=0;whiteSpace=wrap;html=1;" vertex="1" parent="1">
          <mxGeometry x="-662.5" y="185" width="227.5" height="20" as="geometry" />
        </mxCell>
        <mxCell id="5e5WTFrlp_W5CzMCf6vT-291" value="" style="rounded=0;whiteSpace=wrap;html=1;" vertex="1" parent="1">
          <mxGeometry x="-662.5" y="209" width="227.5" height="20" as="geometry" />
        </mxCell>
        <mxCell id="5e5WTFrlp_W5CzMCf6vT-292" value="" style="rounded=0;whiteSpace=wrap;html=1;" vertex="1" parent="1">
          <mxGeometry x="-662.5" y="235" width="227.5" height="65" as="geometry" />
        </mxCell>
        <mxCell id="5e5WTFrlp_W5CzMCf6vT-297" value="" style="rounded=0;whiteSpace=wrap;html=1;" vertex="1" parent="1">
          <mxGeometry x="-205" y="140" width="180" height="220" as="geometry" />
        </mxCell>
        <mxCell id="5e5WTFrlp_W5CzMCf6vT-299" value="Emi calculator" style="rounded=0;whiteSpace=wrap;html=1;" vertex="1" parent="1">
          <mxGeometry x="-200" y="230" width="150" height="50" as="geometry" />
        </mxCell>
        <mxCell id="5e5WTFrlp_W5CzMCf6vT-301" value="Login" style="rounded=0;whiteSpace=wrap;html=1;fontSize=10;shadow=0;" vertex="1" parent="1">
          <mxGeometry x="-100" y="150" width="45" height="20" as="geometry" />
        </mxCell>
        <mxCell id="5e5WTFrlp_W5CzMCf6vT-302" value="" style="rounded=0;whiteSpace=wrap;html=1;" vertex="1" parent="1">
          <mxGeometry x="-200" y="150" width="170" height="20" as="geometry" />
        </mxCell>
        <mxCell id="5e5WTFrlp_W5CzMCf6vT-303" value="Login" style="rounded=0;whiteSpace=wrap;html=1;fontSize=10;" vertex="1" parent="1">
          <mxGeometry x="-75" y="150" width="45" height="20" as="geometry" />
        </mxCell>
        <mxCell id="5e5WTFrlp_W5CzMCf6vT-304" value="Register" style="rounded=0;whiteSpace=wrap;html=1;fontSize=9;" vertex="1" parent="1">
          <mxGeometry x="-120" y="150" width="45" height="20" as="geometry" />
        </mxCell>
        <mxCell id="5e5WTFrlp_W5CzMCf6vT-305" value="Icon" style="rounded=0;whiteSpace=wrap;html=1;fontSize=9;" vertex="1" parent="1">
          <mxGeometry x="-200" y="150" width="30" height="20" as="geometry" />
        </mxCell>
        <mxCell id="5e5WTFrlp_W5CzMCf6vT-306" value="Footer" style="rounded=0;whiteSpace=wrap;html=1;" vertex="1" parent="1">
          <mxGeometry x="-200" y="300" width="150" height="50" as="geometry" />
        </mxCell>
        <mxCell id="5e5WTFrlp_W5CzMCf6vT-307" value="Loan Scheme" style="rounded=0;whiteSpace=wrap;html=1;" vertex="1" parent="1">
          <mxGeometry x="-200" y="190" width="150" height="30" as="geometry" />
        </mxCell>
        <mxCell id="5e5WTFrlp_W5CzMCf6vT-309" value="" style="endArrow=classic;html=1;rounded=0;" edge="1" parent="1">
          <mxGeometry width="50" height="50" relative="1" as="geometry">
            <mxPoint x="-65" y="160" as="sourcePoint" />
            <mxPoint x="105" y="129" as="targetPoint" />
            <Array as="points">
              <mxPoint x="-65" y="80" />
              <mxPoint x="105" y="80" />
            </Array>
          </mxGeometry>
        </mxCell>
        <mxCell id="5e5WTFrlp_W5CzMCf6vT-310" value="" style="endArrow=classic;html=1;rounded=0;entryX=0.34;entryY=-0.008;entryDx=0;entryDy=0;entryPerimeter=0;" edge="1" parent="1" target="5e5WTFrlp_W5CzMCf6vT-157">
          <mxGeometry width="50" height="50" relative="1" as="geometry">
            <mxPoint x="-100" y="150" as="sourcePoint" />
            <mxPoint x="370" y="60" as="targetPoint" />
            <Array as="points">
              <mxPoint x="-100" y="50" />
              <mxPoint x="70" y="50" />
              <mxPoint x="350" y="50" />
            </Array>
          </mxGeometry>
        </mxCell>
        <mxCell id="5e5WTFrlp_W5CzMCf6vT-311" value="" style="endArrow=classic;startArrow=classic;html=1;rounded=0;" edge="1" parent="1">
          <mxGeometry width="50" height="50" relative="1" as="geometry">
            <mxPoint x="-60" y="560" as="sourcePoint" />
            <mxPoint x="430" y="570" as="targetPoint" />
            <Array as="points">
              <mxPoint x="220" y="350" />
            </Array>
          </mxGeometry>
        </mxCell>
        <mxCell id="5e5WTFrlp_W5CzMCf6vT-312" value="&lt;font style=&quot;font-size: 14px;&quot;&gt;&lt;b&gt;Customer&lt;/b&gt;&lt;/font&gt;" style="text;html=1;align=center;verticalAlign=middle;resizable=0;points=[];autosize=1;strokeColor=none;fillColor=none;" vertex="1" parent="1">
          <mxGeometry x="-15" y="445" width="90" height="30" as="geometry" />
        </mxCell>
        <mxCell id="5e5WTFrlp_W5CzMCf6vT-313" value="&lt;b&gt;&lt;font style=&quot;font-size: 14px;&quot;&gt;Home&lt;/font&gt;&lt;/b&gt;" style="text;html=1;align=center;verticalAlign=middle;resizable=0;points=[];autosize=1;strokeColor=none;fillColor=none;" vertex="1" parent="1">
          <mxGeometry x="-170" y="378" width="60" height="30" as="geometry" />
        </mxCell>
        <mxCell id="5e5WTFrlp_W5CzMCf6vT-314" value="OTP" style="rounded=0;whiteSpace=wrap;html=1;" vertex="1" parent="1">
          <mxGeometry x="105" y="200" width="130" height="20" as="geometry" />
        </mxCell>
        <mxCell id="5e5WTFrlp_W5CzMCf6vT-315" value="" style="whiteSpace=wrap;html=1;aspect=fixed;" vertex="1" parent="1">
          <mxGeometry x="-210" y="560" width="260" height="260" as="geometry" />
        </mxCell>
        <mxCell id="5e5WTFrlp_W5CzMCf6vT-316" value="" style="whiteSpace=wrap;html=1;aspect=fixed;" vertex="1" parent="1">
          <mxGeometry x="320" y="570" width="410" height="410" as="geometry" />
        </mxCell>
        <mxCell id="5e5WTFrlp_W5CzMCf6vT-317" value="&lt;font style=&quot;font-size: 14px;&quot;&gt;&lt;b&gt;Manager&lt;/b&gt;&lt;/font&gt;" style="text;html=1;align=center;verticalAlign=middle;resizable=0;points=[];autosize=1;strokeColor=none;fillColor=none;" vertex="1" parent="1">
          <mxGeometry x="300" y="428" width="80" height="30" as="geometry" />
        </mxCell>
        <mxCell id="5e5WTFrlp_W5CzMCf6vT-318" value="" style="whiteSpace=wrap;html=1;aspect=fixed;" vertex="1" parent="1">
          <mxGeometry x="-220" y="840" width="260" height="260" as="geometry" />
        </mxCell>
        <mxCell id="5e5WTFrlp_W5CzMCf6vT-319" value="" style="endArrow=none;html=1;rounded=0;" edge="1" parent="1">
          <mxGeometry width="50" height="50" relative="1" as="geometry">
            <mxPoint x="430" y="950" as="sourcePoint" />
            <mxPoint x="430" y="570" as="targetPoint" />
          </mxGeometry>
        </mxCell>
        <mxCell id="5e5WTFrlp_W5CzMCf6vT-320" value="Admin" style="swimlane;fontStyle=0;childLayout=stackLayout;horizontal=1;startSize=26;fillColor=none;horizontalStack=0;resizeParent=1;resizeParentMax=0;resizeLast=0;collapsible=1;marginBottom=0;html=1;" vertex="1" parent="1">
          <mxGeometry x="320" y="570" width="110" height="410" as="geometry" />
        </mxCell>
        <mxCell id="5e5WTFrlp_W5CzMCf6vT-321" value="Main Navigation" style="text;strokeColor=none;fillColor=#E43EFF;align=left;verticalAlign=top;spacingLeft=4;spacingRight=4;overflow=hidden;rotatable=0;points=[[0,0.5],[1,0.5]];portConstraint=eastwest;whiteSpace=wrap;html=1;" vertex="1" parent="5e5WTFrlp_W5CzMCf6vT-320">
          <mxGeometry y="26" width="110" height="26" as="geometry" />
        </mxCell>
        <mxCell id="5e5WTFrlp_W5CzMCf6vT-322" value="DashBoard" style="text;strokeColor=none;fillColor=#D5E9FF;align=left;verticalAlign=top;spacingLeft=4;spacingRight=4;overflow=hidden;rotatable=0;points=[[0,0.5],[1,0.5]];portConstraint=eastwest;whiteSpace=wrap;html=1;" vertex="1" parent="5e5WTFrlp_W5CzMCf6vT-320">
          <mxGeometry y="52" width="110" height="28" as="geometry" />
        </mxCell>
        <mxCell id="5e5WTFrlp_W5CzMCf6vT-323" value="&lt;div&gt;&lt;br&gt;&lt;/div&gt;Email Panel&lt;div&gt;&lt;br&gt;&lt;/div&gt;&lt;div&gt;&lt;br&gt;&lt;/div&gt;&lt;div&gt;Borrowers&lt;/div&gt;&lt;div&gt;&lt;br&gt;&lt;/div&gt;&lt;div&gt;&lt;br&gt;&lt;/div&gt;&lt;div&gt;Loans&lt;/div&gt;&lt;div&gt;&lt;br&gt;&lt;/div&gt;&lt;div&gt;&lt;br&gt;&lt;/div&gt;&lt;div&gt;Message&lt;/div&gt;&lt;div&gt;&lt;br&gt;&lt;/div&gt;&lt;div&gt;&lt;br&gt;&lt;/div&gt;&lt;div&gt;Missed Payment&lt;/div&gt;&lt;div&gt;&lt;br&gt;&lt;/div&gt;&lt;div&gt;&lt;br&gt;&lt;/div&gt;&lt;div&gt;Payment&lt;/div&gt;&lt;div&gt;&lt;br&gt;&lt;/div&gt;&lt;div&gt;&lt;br&gt;&lt;/div&gt;&lt;div&gt;&lt;br&gt;&lt;/div&gt;&lt;div&gt;Employee&lt;/div&gt;&lt;div&gt;&lt;br&gt;&lt;/div&gt;&lt;div&gt;&lt;br&gt;&lt;/div&gt;" style="text;strokeColor=none;fillColor=#D5E9FF;align=left;verticalAlign=top;spacingLeft=4;spacingRight=4;overflow=hidden;rotatable=0;points=[[0,0.5],[1,0.5]];portConstraint=eastwest;whiteSpace=wrap;html=1;" vertex="1" parent="5e5WTFrlp_W5CzMCf6vT-320">
          <mxGeometry y="80" width="110" height="330" as="geometry" />
        </mxCell>
        <mxCell id="5e5WTFrlp_W5CzMCf6vT-326" value="" style="rounded=0;whiteSpace=wrap;html=1;" vertex="1" parent="1">
          <mxGeometry x="445" y="630" width="120" height="60" as="geometry" />
        </mxCell>
        <mxCell id="5e5WTFrlp_W5CzMCf6vT-327" value="" style="rounded=0;whiteSpace=wrap;html=1;" vertex="1" parent="1">
          <mxGeometry x="600" y="630" width="120" height="60" as="geometry" />
        </mxCell>
        <mxCell id="5e5WTFrlp_W5CzMCf6vT-328" value="" style="rounded=0;whiteSpace=wrap;html=1;" vertex="1" parent="1">
          <mxGeometry x="445" y="700" width="120" height="60" as="geometry" />
        </mxCell>
        <mxCell id="5e5WTFrlp_W5CzMCf6vT-329" value="" style="rounded=0;whiteSpace=wrap;html=1;" vertex="1" parent="1">
          <mxGeometry x="600" y="700" width="120" height="60" as="geometry" />
        </mxCell>
        <mxCell id="5e5WTFrlp_W5CzMCf6vT-330" value="" style="rounded=0;whiteSpace=wrap;html=1;" vertex="1" parent="1">
          <mxGeometry x="445" y="770" width="120" height="60" as="geometry" />
        </mxCell>
        <mxCell id="5e5WTFrlp_W5CzMCf6vT-331" value="" style="rounded=0;whiteSpace=wrap;html=1;" vertex="1" parent="1">
          <mxGeometry x="600" y="770" width="120" height="60" as="geometry" />
        </mxCell>
        <mxCell id="5e5WTFrlp_W5CzMCf6vT-332" value="" style="rounded=0;whiteSpace=wrap;html=1;" vertex="1" parent="1">
          <mxGeometry x="445" y="840" width="120" height="60" as="geometry" />
        </mxCell>
        <mxCell id="5e5WTFrlp_W5CzMCf6vT-333" value="" style="rounded=0;whiteSpace=wrap;html=1;" vertex="1" parent="1">
          <mxGeometry x="600" y="840" width="120" height="60" as="geometry" />
        </mxCell>
        <mxCell id="5e5WTFrlp_W5CzMCf6vT-334" value="" style="endArrow=classic;html=1;rounded=0;exitX=-0.017;exitY=0.354;exitDx=0;exitDy=0;exitPerimeter=0;entryX=-0.021;entryY=0.337;entryDx=0;entryDy=0;entryPerimeter=0;strokeColor=#3B22FF;" edge="1" parent="1" source="5e5WTFrlp_W5CzMCf6vT-323" target="5e5WTFrlp_W5CzMCf6vT-340">
          <mxGeometry width="50" height="50" relative="1" as="geometry">
            <mxPoint x="260" y="765" as="sourcePoint" />
            <mxPoint x="260" y="1260" as="targetPoint" />
            <Array as="points">
              <mxPoint x="250" y="760" />
              <mxPoint x="250" y="1258" />
            </Array>
          </mxGeometry>
        </mxCell>
        <mxCell id="5e5WTFrlp_W5CzMCf6vT-335" value="" style="whiteSpace=wrap;html=1;aspect=fixed;" vertex="1" parent="1">
          <mxGeometry x="300" y="1070" width="410" height="410" as="geometry" />
        </mxCell>
        <mxCell id="5e5WTFrlp_W5CzMCf6vT-336" value="" style="endArrow=none;html=1;rounded=0;" edge="1" parent="1">
          <mxGeometry width="50" height="50" relative="1" as="geometry">
            <mxPoint x="410" y="1450" as="sourcePoint" />
            <mxPoint x="410" y="1070" as="targetPoint" />
          </mxGeometry>
        </mxCell>
        <mxCell id="5e5WTFrlp_W5CzMCf6vT-337" value="Admin" style="swimlane;fontStyle=0;childLayout=stackLayout;horizontal=1;startSize=26;fillColor=none;horizontalStack=0;resizeParent=1;resizeParentMax=0;resizeLast=0;collapsible=1;marginBottom=0;html=1;" vertex="1" parent="1">
          <mxGeometry x="300" y="1070" width="110" height="400" as="geometry" />
        </mxCell>
        <mxCell id="5e5WTFrlp_W5CzMCf6vT-338" value="Main Navigation" style="text;strokeColor=none;fillColor=#E43EFF;align=left;verticalAlign=top;spacingLeft=4;spacingRight=4;overflow=hidden;rotatable=0;points=[[0,0.5],[1,0.5]];portConstraint=eastwest;whiteSpace=wrap;html=1;" vertex="1" parent="5e5WTFrlp_W5CzMCf6vT-337">
          <mxGeometry y="26" width="110" height="26" as="geometry" />
        </mxCell>
        <mxCell id="5e5WTFrlp_W5CzMCf6vT-339" value="DashBoard" style="text;strokeColor=none;fillColor=#D5E9FF;align=left;verticalAlign=top;spacingLeft=4;spacingRight=4;overflow=hidden;rotatable=0;points=[[0,0.5],[1,0.5]];portConstraint=eastwest;whiteSpace=wrap;html=1;" vertex="1" parent="5e5WTFrlp_W5CzMCf6vT-337">
          <mxGeometry y="52" width="110" height="28" as="geometry" />
        </mxCell>
        <mxCell id="5e5WTFrlp_W5CzMCf6vT-340" value="&lt;div&gt;&lt;br&gt;&lt;/div&gt;Email Panel&lt;div&gt;&lt;br&gt;&lt;/div&gt;&lt;div&gt;&lt;br&gt;&lt;/div&gt;&lt;div&gt;Borrowers&lt;/div&gt;&lt;div&gt;&lt;br&gt;&lt;/div&gt;&lt;div&gt;Loan&lt;/div&gt;&lt;div&gt;&lt;span style=&quot;white-space: pre;&quot;&gt;&#x9;&lt;/span&gt;New Loan&lt;br&gt;&lt;/div&gt;&lt;div&gt;&lt;span style=&quot;white-space: pre;&quot;&gt;&#x9;&lt;/span&gt;Active Loan&lt;br&gt;&lt;/div&gt;&lt;div&gt;&lt;span style=&quot;white-space: pre;&quot;&gt;&#x9;&lt;/span&gt;List of Loan&lt;br&gt;&lt;/div&gt;&lt;div&gt;&lt;br&gt;&lt;/div&gt;&lt;div&gt;&lt;br&gt;&lt;/div&gt;&lt;div&gt;Message&lt;/div&gt;&lt;div&gt;&lt;br&gt;&lt;/div&gt;&lt;div&gt;&lt;br&gt;&lt;/div&gt;&lt;div&gt;Missed Payment&lt;/div&gt;&lt;div&gt;&lt;br&gt;&lt;/div&gt;&lt;div&gt;&lt;br&gt;&lt;/div&gt;&lt;div&gt;Payment&lt;/div&gt;&lt;div&gt;&lt;br&gt;&lt;/div&gt;&lt;div&gt;&lt;br&gt;&lt;/div&gt;&lt;div&gt;&lt;br&gt;&lt;/div&gt;&lt;div&gt;Employee&lt;/div&gt;&lt;div&gt;&lt;br&gt;&lt;/div&gt;&lt;div&gt;&lt;br&gt;&lt;/div&gt;" style="text;strokeColor=none;fillColor=#D5E9FF;align=left;verticalAlign=top;spacingLeft=4;spacingRight=4;overflow=hidden;rotatable=0;points=[[0,0.5],[1,0.5]];portConstraint=eastwest;whiteSpace=wrap;html=1;" vertex="1" parent="5e5WTFrlp_W5CzMCf6vT-337">
          <mxGeometry y="80" width="110" height="320" as="geometry" />
        </mxCell>
        <mxCell id="5e5WTFrlp_W5CzMCf6vT-341" value="" style="rounded=0;whiteSpace=wrap;html=1;fillColor=#E4FFC7;" vertex="1" parent="1">
          <mxGeometry x="425" y="1100" width="265" height="360" as="geometry" />
        </mxCell>
        <mxCell id="5e5WTFrlp_W5CzMCf6vT-349" value="" style="whiteSpace=wrap;html=1;aspect=fixed;" vertex="1" parent="1">
          <mxGeometry x="840" y="485" width="420" height="420" as="geometry" />
        </mxCell>
        <mxCell id="5e5WTFrlp_W5CzMCf6vT-350" value="" style="endArrow=none;html=1;rounded=0;" edge="1" parent="1">
          <mxGeometry width="50" height="50" relative="1" as="geometry">
            <mxPoint x="950" y="865" as="sourcePoint" />
            <mxPoint x="950" y="485" as="targetPoint" />
          </mxGeometry>
        </mxCell>
        <mxCell id="5e5WTFrlp_W5CzMCf6vT-351" value="Admin" style="swimlane;fontStyle=0;childLayout=stackLayout;horizontal=1;startSize=26;fillColor=none;horizontalStack=0;resizeParent=1;resizeParentMax=0;resizeLast=0;collapsible=1;marginBottom=0;html=1;" vertex="1" parent="1">
          <mxGeometry x="840" y="485" width="110" height="400" as="geometry" />
        </mxCell>
        <mxCell id="5e5WTFrlp_W5CzMCf6vT-352" value="Main Navigation" style="text;strokeColor=none;fillColor=#E43EFF;align=left;verticalAlign=top;spacingLeft=4;spacingRight=4;overflow=hidden;rotatable=0;points=[[0,0.5],[1,0.5]];portConstraint=eastwest;whiteSpace=wrap;html=1;" vertex="1" parent="5e5WTFrlp_W5CzMCf6vT-351">
          <mxGeometry y="26" width="110" height="26" as="geometry" />
        </mxCell>
        <mxCell id="5e5WTFrlp_W5CzMCf6vT-353" value="DashBoard" style="text;strokeColor=none;fillColor=#D5E9FF;align=left;verticalAlign=top;spacingLeft=4;spacingRight=4;overflow=hidden;rotatable=0;points=[[0,0.5],[1,0.5]];portConstraint=eastwest;whiteSpace=wrap;html=1;" vertex="1" parent="5e5WTFrlp_W5CzMCf6vT-351">
          <mxGeometry y="52" width="110" height="28" as="geometry" />
        </mxCell>
        <mxCell id="5e5WTFrlp_W5CzMCf6vT-354" value="&lt;div&gt;&lt;br&gt;&lt;/div&gt;Email Panel&lt;div&gt;&lt;br&gt;&lt;/div&gt;&lt;div&gt;Borrowers&lt;/div&gt;&lt;div&gt;New Borrowers&lt;br&gt;&lt;/div&gt;&lt;div&gt;List Borowers&lt;/div&gt;&lt;div&gt;&lt;br&gt;&lt;/div&gt;&lt;div&gt;Loans&lt;/div&gt;&lt;div&gt;&lt;br&gt;&lt;/div&gt;&lt;div&gt;&lt;br&gt;&lt;/div&gt;&lt;div&gt;Message&lt;/div&gt;&lt;div&gt;&lt;br&gt;&lt;/div&gt;&lt;div&gt;&lt;br&gt;&lt;/div&gt;&lt;div&gt;Missed Payment&lt;/div&gt;&lt;div&gt;&lt;br&gt;&lt;/div&gt;&lt;div&gt;&lt;br&gt;&lt;/div&gt;&lt;div&gt;Payment&lt;/div&gt;&lt;div&gt;&lt;br&gt;&lt;/div&gt;&lt;div&gt;&lt;br&gt;&lt;/div&gt;&lt;div&gt;&lt;br&gt;&lt;/div&gt;&lt;div&gt;Employee&lt;/div&gt;&lt;div&gt;&lt;br&gt;&lt;/div&gt;&lt;div&gt;&lt;br&gt;&lt;/div&gt;" style="text;strokeColor=none;fillColor=#D5E9FF;align=left;verticalAlign=top;spacingLeft=4;spacingRight=4;overflow=hidden;rotatable=0;points=[[0,0.5],[1,0.5]];portConstraint=eastwest;whiteSpace=wrap;html=1;" vertex="1" parent="5e5WTFrlp_W5CzMCf6vT-351">
          <mxGeometry y="80" width="110" height="320" as="geometry" />
        </mxCell>
        <mxCell id="5e5WTFrlp_W5CzMCf6vT-355" value="" style="rounded=0;whiteSpace=wrap;html=1;fillColor=#E4FFC7;" vertex="1" parent="1">
          <mxGeometry x="965" y="510" width="275" height="370" as="geometry" />
        </mxCell>
        <mxCell id="5e5WTFrlp_W5CzMCf6vT-363" value="" style="endArrow=classic;html=1;rounded=0;exitX=-0.017;exitY=0.354;exitDx=0;exitDy=0;exitPerimeter=0;strokeColor=#32FF49;" edge="1" parent="1">
          <mxGeometry width="50" height="50" relative="1" as="geometry">
            <mxPoint x="325" y="722.5" as="sourcePoint" />
            <mxPoint x="830" y="640" as="targetPoint" />
            <Array as="points">
              <mxPoint x="210" y="722" />
              <mxPoint x="210" y="960" />
              <mxPoint x="210" y="1040" />
              <mxPoint x="290" y="1040" />
              <mxPoint x="790" y="1040" />
              <mxPoint x="790" y="780" />
              <mxPoint x="790" y="640" />
            </Array>
          </mxGeometry>
        </mxCell>
        <mxCell id="5e5WTFrlp_W5CzMCf6vT-364" value="" style="whiteSpace=wrap;html=1;aspect=fixed;" vertex="1" parent="1">
          <mxGeometry x="850" y="1090" width="520" height="520" as="geometry" />
        </mxCell>
        <mxCell id="5e5WTFrlp_W5CzMCf6vT-365" value="" style="endArrow=none;html=1;rounded=0;" edge="1" parent="1">
          <mxGeometry width="50" height="50" relative="1" as="geometry">
            <mxPoint x="960" y="1470" as="sourcePoint" />
            <mxPoint x="960" y="1090" as="targetPoint" />
          </mxGeometry>
        </mxCell>
        <mxCell id="5e5WTFrlp_W5CzMCf6vT-366" value="Admin" style="swimlane;fontStyle=0;childLayout=stackLayout;horizontal=1;startSize=26;fillColor=none;horizontalStack=0;resizeParent=1;resizeParentMax=0;resizeLast=0;collapsible=1;marginBottom=0;html=1;" vertex="1" parent="1">
          <mxGeometry x="850" y="1090" width="140" height="520" as="geometry" />
        </mxCell>
        <mxCell id="5e5WTFrlp_W5CzMCf6vT-367" value="Main Navigation" style="text;strokeColor=none;fillColor=#E43EFF;align=left;verticalAlign=top;spacingLeft=4;spacingRight=4;overflow=hidden;rotatable=0;points=[[0,0.5],[1,0.5]];portConstraint=eastwest;whiteSpace=wrap;html=1;" vertex="1" parent="5e5WTFrlp_W5CzMCf6vT-366">
          <mxGeometry y="26" width="140" height="26" as="geometry" />
        </mxCell>
        <mxCell id="5e5WTFrlp_W5CzMCf6vT-368" value="DashBoard" style="text;strokeColor=none;fillColor=#D5E9FF;align=left;verticalAlign=top;spacingLeft=4;spacingRight=4;overflow=hidden;rotatable=0;points=[[0,0.5],[1,0.5]];portConstraint=eastwest;whiteSpace=wrap;html=1;" vertex="1" parent="5e5WTFrlp_W5CzMCf6vT-366">
          <mxGeometry y="52" width="140" height="28" as="geometry" />
        </mxCell>
        <mxCell id="5e5WTFrlp_W5CzMCf6vT-369" value="&lt;div&gt;&lt;br&gt;&lt;/div&gt;Email Panel&lt;div&gt;&lt;br&gt;&lt;/div&gt;&lt;div&gt;&lt;br&gt;&lt;/div&gt;&lt;div&gt;Borrowers&lt;/div&gt;&lt;div&gt;&lt;br&gt;&lt;/div&gt;&lt;div&gt;&lt;br&gt;&lt;/div&gt;&lt;div&gt;Loans&lt;/div&gt;&lt;div&gt;&lt;br&gt;&lt;/div&gt;&lt;div&gt;&lt;br&gt;&lt;/div&gt;&lt;div&gt;Message&lt;/div&gt;&lt;div&gt;&lt;br&gt;&lt;/div&gt;&lt;div&gt;&lt;br&gt;&lt;/div&gt;&lt;div&gt;Missed Payment&lt;/div&gt;&lt;div&gt;&lt;br&gt;&lt;/div&gt;&lt;div&gt;&lt;br&gt;&lt;/div&gt;&lt;div&gt;Payment(new loan payment)&lt;/div&gt;&lt;div&gt;&lt;span style=&quot;white-space: pre;&quot;&gt;&#x9;&lt;/span&gt;New payment&lt;br&gt;&lt;/div&gt;&lt;div&gt;&lt;br&gt;&lt;/div&gt;&lt;div&gt;&lt;span style=&quot;white-space: pre;&quot;&gt;&#x9;&lt;/span&gt;List of payment&amp;nbsp;&lt;/div&gt;&lt;div&gt;&lt;br&gt;&lt;/div&gt;&lt;div&gt;&lt;br&gt;&lt;/div&gt;&lt;div&gt;&lt;br&gt;&lt;/div&gt;&lt;div&gt;Employee&lt;/div&gt;&lt;div&gt;&lt;br&gt;&lt;/div&gt;&lt;div&gt;&lt;br&gt;&lt;/div&gt;" style="text;strokeColor=none;fillColor=#D5E9FF;align=left;verticalAlign=top;spacingLeft=4;spacingRight=4;overflow=hidden;rotatable=0;points=[[0,0.5],[1,0.5]];portConstraint=eastwest;whiteSpace=wrap;html=1;" vertex="1" parent="5e5WTFrlp_W5CzMCf6vT-366">
          <mxGeometry y="80" width="140" height="440" as="geometry" />
        </mxCell>
        <mxCell id="5e5WTFrlp_W5CzMCf6vT-370" value="" style="rounded=0;whiteSpace=wrap;html=1;fillColor=#E4FFC7;" vertex="1" parent="1">
          <mxGeometry x="1010" y="1150" width="330" height="430" as="geometry" />
        </mxCell>
        <mxCell id="5e5WTFrlp_W5CzMCf6vT-372" value="" style="endArrow=classic;html=1;rounded=0;exitX=-0.017;exitY=0.354;exitDx=0;exitDy=0;exitPerimeter=0;entryX=-0.025;entryY=0.589;entryDx=0;entryDy=0;entryPerimeter=0;fillColor=#FF4028;strokeColor=#FF712C;" edge="1" parent="1" target="5e5WTFrlp_W5CzMCf6vT-369">
          <mxGeometry width="50" height="50" relative="1" as="geometry">
            <mxPoint x="335" y="892.5" as="sourcePoint" />
            <mxPoint x="820" y="1785.3333875868057" as="targetPoint" />
            <Array as="points">
              <mxPoint x="170" y="892" />
              <mxPoint x="170" y="1030" />
              <mxPoint x="440" y="1030" />
              <mxPoint x="640" y="1030" />
              <mxPoint x="810" y="1030" />
              <mxPoint x="810" y="1290" />
              <mxPoint x="810" y="1429" />
            </Array>
          </mxGeometry>
        </mxCell>
        <mxCell id="5e5WTFrlp_W5CzMCf6vT-374" value="Dash Board&lt;span style=&quot;white-space: pre;&quot;&gt;&#x9;&lt;/span&gt;&lt;span style=&quot;white-space: pre;&quot;&gt;&#x9;&lt;/span&gt;&lt;span style=&quot;white-space: pre;&quot;&gt;&#x9;&lt;/span&gt;&lt;span style=&quot;white-space: pre;&quot;&gt;&#x9;&lt;/span&gt;&lt;span style=&quot;white-space: pre;&quot;&gt;&#x9;&lt;/span&gt;&lt;span style=&quot;white-space: pre;&quot;&gt;&#x9;&lt;/span&gt;&lt;span style=&quot;white-space: pre;&quot;&gt;&#x9;&lt;/span&gt;&lt;span style=&quot;white-space: pre;&quot;&gt;&#x9;&lt;/span&gt;" style="rounded=0;whiteSpace=wrap;html=1;" vertex="1" parent="1">
          <mxGeometry x="440" y="580" width="280" height="30" as="geometry" />
        </mxCell>
        <mxCell id="5e5WTFrlp_W5CzMCf6vT-376" value="" style="whiteSpace=wrap;html=1;aspect=fixed;" vertex="1" parent="1">
          <mxGeometry x="270" y="1530" width="410" height="410" as="geometry" />
        </mxCell>
        <mxCell id="5e5WTFrlp_W5CzMCf6vT-377" value="" style="endArrow=none;html=1;rounded=0;" edge="1" parent="1">
          <mxGeometry width="50" height="50" relative="1" as="geometry">
            <mxPoint x="380" y="1910" as="sourcePoint" />
            <mxPoint x="380" y="1530" as="targetPoint" />
          </mxGeometry>
        </mxCell>
        <mxCell id="5e5WTFrlp_W5CzMCf6vT-378" value="Admin" style="swimlane;fontStyle=0;childLayout=stackLayout;horizontal=1;startSize=26;fillColor=none;horizontalStack=0;resizeParent=1;resizeParentMax=0;resizeLast=0;collapsible=1;marginBottom=0;html=1;" vertex="1" parent="1">
          <mxGeometry x="270" y="1530" width="120" height="410" as="geometry" />
        </mxCell>
        <mxCell id="5e5WTFrlp_W5CzMCf6vT-379" value="Main Navigation" style="text;strokeColor=none;fillColor=#E43EFF;align=left;verticalAlign=top;spacingLeft=4;spacingRight=4;overflow=hidden;rotatable=0;points=[[0,0.5],[1,0.5]];portConstraint=eastwest;whiteSpace=wrap;html=1;" vertex="1" parent="5e5WTFrlp_W5CzMCf6vT-378">
          <mxGeometry y="26" width="120" height="26" as="geometry" />
        </mxCell>
        <mxCell id="5e5WTFrlp_W5CzMCf6vT-380" value="DashBoard" style="text;strokeColor=none;fillColor=#D5E9FF;align=left;verticalAlign=top;spacingLeft=4;spacingRight=4;overflow=hidden;rotatable=0;points=[[0,0.5],[1,0.5]];portConstraint=eastwest;whiteSpace=wrap;html=1;" vertex="1" parent="5e5WTFrlp_W5CzMCf6vT-378">
          <mxGeometry y="52" width="120" height="28" as="geometry" />
        </mxCell>
        <mxCell id="5e5WTFrlp_W5CzMCf6vT-381" value="&lt;div&gt;&lt;br&gt;&lt;/div&gt;Email Panel&lt;div&gt;&lt;br&gt;&lt;/div&gt;&lt;div&gt;&lt;br&gt;&lt;/div&gt;&lt;div&gt;Borrowers&lt;/div&gt;&lt;div&gt;&lt;br&gt;&lt;/div&gt;&lt;div&gt;&lt;br&gt;&lt;/div&gt;&lt;div&gt;Loan&lt;/div&gt;&lt;div&gt;&lt;br&gt;&lt;/div&gt;&lt;div&gt;&lt;br&gt;&lt;/div&gt;&lt;div&gt;&lt;span style=&quot;background-color: transparent; color: light-dark(rgb(0, 0, 0), rgb(255, 255, 255));&quot;&gt;Message&lt;/span&gt;&lt;/div&gt;&lt;div&gt;&lt;br&gt;&lt;/div&gt;&lt;div&gt;Missed Payment&lt;/div&gt;&lt;div&gt;&lt;span style=&quot;white-space: pre;&quot;&gt;&#x9;&lt;/span&gt;List&amp;nbsp;&lt;br&gt;&lt;/div&gt;&lt;div&gt;&lt;span style=&quot;white-space: pre;&quot;&gt;&#x9;&lt;/span&gt;Due within date&lt;/div&gt;&lt;div&gt;&lt;span style=&quot;white-space: pre;&quot;&gt;&#x9;&lt;/span&gt;Payment&lt;/div&gt;&lt;div&gt;&lt;br&gt;&lt;/div&gt;&lt;div&gt;&lt;br&gt;&lt;/div&gt;&lt;div&gt;&lt;br&gt;&lt;/div&gt;&lt;div&gt;Employee&lt;/div&gt;&lt;div&gt;&lt;br&gt;&lt;/div&gt;&lt;div&gt;&lt;br&gt;&lt;/div&gt;" style="text;strokeColor=none;fillColor=#D5E9FF;align=left;verticalAlign=top;spacingLeft=4;spacingRight=4;overflow=hidden;rotatable=0;points=[[0,0.5],[1,0.5]];portConstraint=eastwest;whiteSpace=wrap;html=1;" vertex="1" parent="5e5WTFrlp_W5CzMCf6vT-378">
          <mxGeometry y="80" width="120" height="330" as="geometry" />
        </mxCell>
        <mxCell id="5e5WTFrlp_W5CzMCf6vT-382" value="" style="rounded=0;whiteSpace=wrap;html=1;fillColor=#E4FFC7;" vertex="1" parent="1">
          <mxGeometry x="395" y="1560" width="265" height="360" as="geometry" />
        </mxCell>
        <mxCell id="5e5WTFrlp_W5CzMCf6vT-375" style="edgeStyle=orthogonalEdgeStyle;rounded=0;orthogonalLoop=1;jettySize=auto;html=1;exitX=0;exitY=0.5;exitDx=0;exitDy=0;" edge="1" parent="1">
          <mxGeometry relative="1" as="geometry">
            <mxPoint x="275" y="1800" as="targetPoint" />
            <mxPoint x="335" y="850" as="sourcePoint" />
            <Array as="points">
              <mxPoint x="235" y="850" />
              <mxPoint x="235" y="1800" />
            </Array>
          </mxGeometry>
        </mxCell>
        <mxCell id="5e5WTFrlp_W5CzMCf6vT-387" style="edgeStyle=orthogonalEdgeStyle;rounded=0;orthogonalLoop=1;jettySize=auto;html=1;exitX=0;exitY=0.5;exitDx=0;exitDy=0;strokeColor=#FF5159;" edge="1" parent="1">
          <mxGeometry relative="1" as="geometry">
            <mxPoint x="260" y="2370" as="targetPoint" />
            <mxPoint x="320" y="1420" as="sourcePoint" />
            <Array as="points">
              <mxPoint x="220" y="1420" />
              <mxPoint x="220" y="2370" />
            </Array>
          </mxGeometry>
        </mxCell>
        <mxCell id="5e5WTFrlp_W5CzMCf6vT-388" value="" style="whiteSpace=wrap;html=1;aspect=fixed;" vertex="1" parent="1">
          <mxGeometry x="260" y="1970" width="410" height="410" as="geometry" />
        </mxCell>
        <mxCell id="5e5WTFrlp_W5CzMCf6vT-389" value="" style="endArrow=none;html=1;rounded=0;" edge="1" parent="1">
          <mxGeometry width="50" height="50" relative="1" as="geometry">
            <mxPoint x="370" y="2350" as="sourcePoint" />
            <mxPoint x="370" y="1970" as="targetPoint" />
          </mxGeometry>
        </mxCell>
        <mxCell id="5e5WTFrlp_W5CzMCf6vT-390" value="Admin" style="swimlane;fontStyle=0;childLayout=stackLayout;horizontal=1;startSize=26;fillColor=none;horizontalStack=0;resizeParent=1;resizeParentMax=0;resizeLast=0;collapsible=1;marginBottom=0;html=1;" vertex="1" parent="1">
          <mxGeometry x="260" y="1970" width="120" height="410" as="geometry" />
        </mxCell>
        <mxCell id="5e5WTFrlp_W5CzMCf6vT-391" value="Main Navigation" style="text;strokeColor=none;fillColor=#E43EFF;align=left;verticalAlign=top;spacingLeft=4;spacingRight=4;overflow=hidden;rotatable=0;points=[[0,0.5],[1,0.5]];portConstraint=eastwest;whiteSpace=wrap;html=1;" vertex="1" parent="5e5WTFrlp_W5CzMCf6vT-390">
          <mxGeometry y="26" width="120" height="26" as="geometry" />
        </mxCell>
        <mxCell id="5e5WTFrlp_W5CzMCf6vT-392" value="DashBoard" style="text;strokeColor=none;fillColor=#D5E9FF;align=left;verticalAlign=top;spacingLeft=4;spacingRight=4;overflow=hidden;rotatable=0;points=[[0,0.5],[1,0.5]];portConstraint=eastwest;whiteSpace=wrap;html=1;" vertex="1" parent="5e5WTFrlp_W5CzMCf6vT-390">
          <mxGeometry y="52" width="120" height="28" as="geometry" />
        </mxCell>
        <mxCell id="5e5WTFrlp_W5CzMCf6vT-393" value="&lt;div&gt;&lt;br&gt;&lt;/div&gt;Email Panel&lt;div&gt;&lt;br&gt;&lt;/div&gt;&lt;div&gt;&lt;br&gt;&lt;/div&gt;&lt;div&gt;&lt;br&gt;&lt;/div&gt;&lt;div&gt;Borrowers&lt;/div&gt;&lt;div&gt;&lt;br&gt;&lt;/div&gt;&lt;div&gt;&lt;br&gt;&lt;/div&gt;&lt;div&gt;&lt;br&gt;&lt;/div&gt;&lt;div&gt;Loan&lt;/div&gt;&lt;div&gt;&lt;br&gt;&lt;/div&gt;&lt;div&gt;&lt;br&gt;&lt;/div&gt;&lt;div&gt;&lt;br&gt;&lt;/div&gt;&lt;div&gt;&lt;span style=&quot;background-color: transparent; color: light-dark(rgb(0, 0, 0), rgb(255, 255, 255));&quot;&gt;Message&lt;/span&gt;&lt;/div&gt;&lt;div&gt;&lt;br&gt;&lt;/div&gt;&lt;div&gt;&lt;br&gt;&lt;/div&gt;&lt;div&gt;&lt;br&gt;&lt;/div&gt;&lt;div&gt;Missed Payment&lt;/div&gt;&lt;div&gt;&lt;br&gt;&lt;/div&gt;&lt;div&gt;&lt;br&gt;&lt;/div&gt;&lt;div&gt;&lt;br&gt;&lt;/div&gt;&lt;div&gt;Employee&lt;/div&gt;&lt;div&gt;&lt;br&gt;&lt;/div&gt;&lt;div&gt;&lt;br&gt;&lt;/div&gt;" style="text;strokeColor=none;fillColor=#D5E9FF;align=left;verticalAlign=top;spacingLeft=4;spacingRight=4;overflow=hidden;rotatable=0;points=[[0,0.5],[1,0.5]];portConstraint=eastwest;whiteSpace=wrap;html=1;" vertex="1" parent="5e5WTFrlp_W5CzMCf6vT-390">
          <mxGeometry y="80" width="120" height="330" as="geometry" />
        </mxCell>
        <mxCell id="5e5WTFrlp_W5CzMCf6vT-394" value="" style="rounded=0;whiteSpace=wrap;html=1;fillColor=#E4FFC7;" vertex="1" parent="1">
          <mxGeometry x="385" y="2000" width="265" height="360" as="geometry" />
        </mxCell>
        <mxCell id="5e5WTFrlp_W5CzMCf6vT-396" style="edgeStyle=orthogonalEdgeStyle;rounded=0;orthogonalLoop=1;jettySize=auto;html=1;entryX=0.25;entryY=0;entryDx=0;entryDy=0;" edge="1" parent="1" source="5e5WTFrlp_W5CzMCf6vT-395" target="5e5WTFrlp_W5CzMCf6vT-289">
          <mxGeometry relative="1" as="geometry">
            <mxPoint x="-147.5" y="120" as="targetPoint" />
            <Array as="points">
              <mxPoint x="-148" y="130" />
              <mxPoint x="-464" y="130" />
            </Array>
          </mxGeometry>
        </mxCell>
        <mxCell id="5e5WTFrlp_W5CzMCf6vT-395" value="Contact us" style="rounded=0;whiteSpace=wrap;html=1;fontSize=9;" vertex="1" parent="1">
          <mxGeometry x="-170" y="150" width="50" height="20" as="geometry" />
        </mxCell>
        <mxCell id="5e5WTFrlp_W5CzMCf6vT-397" value="Login" style="rounded=0;whiteSpace=wrap;html=1;fontSize=10;" vertex="1" parent="1">
          <mxGeometry x="-510" y="150" width="45" height="20" as="geometry" />
        </mxCell>
        <mxCell id="5e5WTFrlp_W5CzMCf6vT-398" value="Register" style="rounded=0;whiteSpace=wrap;html=1;fontSize=9;" vertex="1" parent="1">
          <mxGeometry x="-555" y="150" width="45" height="20" as="geometry" />
        </mxCell>
        <mxCell id="5e5WTFrlp_W5CzMCf6vT-399" value="Icon" style="rounded=0;whiteSpace=wrap;html=1;fontSize=9;" vertex="1" parent="1">
          <mxGeometry x="-675" y="150" width="30" height="20" as="geometry" />
        </mxCell>
      </root>
    </mxGraphModel>
  </diagram>
</mxfile>
